<svg version="1.1" id="Layer_1" xmlns="http://www.w3.org/2000/svg" xmlns:xlink="http://www.w3.org/1999/xlink" x="0px" y="0px" width="100%" viewBox="540 395 920 180" enable-background="new 0 0 1920 1080" xml:space="preserve">
<path fill="#FAFAFA" opacity="1.000000" stroke="none" d="
M675.300293,517.771667 
	C675.676208,517.783142 675.850281,517.601257 676.542786,516.982544 
	C677.032227,516.851257 677.521729,516.719910 678.485779,516.848938 
	C678.898804,516.585571 679.311768,516.322205 680.494141,515.792419 
	C684.985596,514.601562 689.580444,513.393860 690.783875,508.020844 
	C692.982422,498.204498 695.038940,488.355591 697.067810,478.502350 
	C697.805542,474.919525 694.989624,470.175476 691.576355,469.446838 
	C685.749390,468.202972 679.867065,467.218628 673.401733,465.682556 
	C671.621826,465.270996 669.847900,464.831726 668.061157,464.452179 
	C647.563660,460.097992 627.072937,455.710846 606.560486,451.427734 
	C599.216797,449.894318 595.995972,452.209595 594.406860,459.562103 
	C592.829102,466.862122 591.567505,474.274078 589.335876,481.375732 
	C587.445190,487.392578 589.237732,491.689514 593.860718,495.656097 
	C592.053711,496.271149 590.653992,496.776031 589.236633,497.225433 
	C580.205383,500.089111 579.144592,502.229126 582.165405,511.211823 
	C584.651306,518.603882 587.064636,526.020447 589.498352,533.429993 
	C591.766724,540.336182 595.504089,542.333618 602.471619,540.230896 
	C613.776794,536.819153 625.093079,533.440308 636.354797,529.889221 
	C646.936096,526.552612 657.452698,523.010986 668.763916,519.316711 
	C669.539307,519.108154 670.314758,518.899597 671.418823,518.937073 
	C671.775818,518.942078 671.938354,518.766602 672.655029,518.130432 
	C673.425659,517.918457 674.196289,517.706421 675.300293,517.771667 
M1145.026489,470.779297 
	C1144.247070,470.492249 1143.463989,470.214905 1142.688965,469.916687 
	C1135.825928,467.275909 1133.508911,464.608398 1133.666382,459.537506 
	C1133.828125,454.329559 1137.208496,450.015594 1143.676636,448.725555 
	C1149.137573,447.636475 1155.040894,446.821503 1160.427979,447.748138 
	C1169.259766,449.267303 1177.831665,452.296967 1186.803955,454.769745 
	C1189.094482,449.081360 1191.671387,442.681366 1194.278687,436.206177 
	C1183.888550,429.704346 1172.754150,427.133545 1161.240356,426.332184 
	C1147.074341,425.346283 1133.201538,426.705383 1121.117676,435.178192 
	C1110.636719,442.527222 1106.521973,452.875519 1107.779541,465.525787 
	C1108.978638,477.587189 1116.440308,484.689636 1126.916870,488.876740 
	C1133.514160,491.513428 1140.567261,492.998413 1147.390137,495.084137 
	C1154.040283,497.117035 1160.778931,498.946045 1167.242310,501.469971 
	C1170.930908,502.910370 1173.354980,506.054901 1173.046265,510.512024 
	C1172.748047,514.816162 1170.325317,517.880371 1166.508911,519.125244 
	C1162.149170,520.547302 1157.506714,521.695618 1152.954834,521.824951 
	C1138.984985,522.221741 1126.142334,518.182861 1114.093872,510.226654 
	C1111.102051,516.868958 1108.207397,523.295532 1105.102905,530.187988 
	C1108.801514,532.207397 1112.004272,534.295105 1115.464355,535.785889 
	C1129.329102,541.759521 1143.890869,543.872253 1158.881348,542.704346 
	C1167.569458,542.027405 1175.915161,539.900085 1183.460938,535.229858 
	C1196.232544,527.325134 1202.004272,513.254944 1198.025269,499.099213 
	C1195.131226,488.804047 1187.424316,483.127502 1177.910645,480.019135 
	C1167.349365,476.568451 1156.514282,473.956085 1145.026489,470.779297 
M1031.032959,525.674011 
	C1029.356812,515.708618 1038.622925,513.237427 1043.075684,506.997986 
	C1051.755127,517.772949 1059.963745,528.025574 1068.273804,538.195251 
	C1069.230347,539.365906 1070.733398,540.843506 1072.014771,540.874573 
	C1081.406372,541.102356 1090.806152,540.997498 1101.070435,540.997498 
	C1087.582275,523.840698 1074.691772,507.444122 1060.387817,489.249664 
	C1072.701172,477.660553 1084.845947,466.230164 1097.724121,454.109528 
	C1088.317383,454.109528 1080.034180,453.902679 1071.773071,454.240662 
	C1069.418945,454.336975 1066.629150,455.469635 1064.892700,457.059479 
	C1054.578125,466.503510 1044.519775,476.227295 1034.355713,485.836456 
	C1033.495361,486.649750 1032.492188,487.312012 1030.864258,488.584717 
	C1030.864258,465.610565 1030.864258,443.557617 1030.864258,421.443726 
	C1022.380249,421.443726 1014.309509,421.443726 1006.179810,421.443726 
	C1006.179810,461.400879 1006.179810,501.088623 1006.179810,540.759277 
	C1014.566711,540.759277 1022.647339,540.759277 1031.032959,540.759277 
	C1031.032959,535.891235 1031.032959,531.261230 1031.032959,525.674011 
M718.595520,540.007385 
	C725.197815,540.007385 731.800049,540.007385 738.855469,540.007385 
	C738.855469,525.805176 738.855469,512.218323 738.855469,498.075134 
	C756.703369,498.075134 774.096680,498.075134 791.592957,498.075134 
	C791.592957,490.771240 791.592957,484.036316 791.592957,476.774780 
	C773.893005,476.774780 756.485596,476.774780 739.134949,476.774780 
	C739.134949,466.487518 739.134949,456.735565 739.134949,446.424011 
	C759.205505,446.424011 778.939697,446.424011 798.627319,446.424011 
	C798.627319,439.088837 798.627319,432.326477 798.627319,425.536316 
	C769.632324,425.536316 740.937439,425.536316 712.370544,425.536316 
	C712.370544,463.874237 712.370544,501.793427 712.370544,540.007385 
	C714.337158,540.007385 715.981323,540.007385 718.595520,540.007385 
M1298.977173,486.596710 
	C1298.125610,483.910645 1297.485962,481.134430 1296.388428,478.552917 
	C1288.117798,459.098572 1267.290527,449.396759 1243.925537,454.021301 
	C1225.267334,457.714264 1210.684326,473.401123 1208.995483,491.595306 
	C1206.967163,513.445679 1216.596924,530.420715 1235.630005,538.127441 
	C1248.937866,543.515991 1262.599365,543.646301 1276.255737,539.707458 
	C1283.159668,537.716125 1289.151611,533.978882 1293.963745,528.132141 
	C1289.377319,523.197021 1285.006714,518.494080 1280.640137,513.795593 
	C1264.556396,528.703064 1236.220947,522.010864 1234.693848,504.711975 
	C1256.298462,504.711975 1277.866089,504.711975 1300.338379,504.711975 
	C1299.901123,498.607361 1299.501465,493.027130 1298.977173,486.596710 
M1331.277100,541.241394 
	C1344.507812,543.361328 1357.162231,543.147705 1367.541016,531.525879 
	C1367.767456,535.170654 1367.944214,538.016052 1368.109375,540.673340 
	C1376.074585,540.673340 1383.627197,540.673340 1390.985352,540.673340 
	C1390.985352,521.712158 1391.499268,503.065796 1390.822266,484.462769 
	C1390.282715,469.634460 1380.918701,458.907288 1366.544434,455.100861 
	C1351.071899,451.003662 1335.864746,452.506256 1321.116821,458.540649 
	C1318.006470,459.813293 1315.145264,461.695343 1312.080811,463.344208 
	C1315.310791,469.597260 1318.195190,475.181427 1321.130981,480.865295 
	C1331.447144,474.296722 1342.217407,471.251465 1354.066895,473.948669 
	C1362.178589,475.795044 1366.454834,481.856842 1365.571289,490.004608 
	C1360.950928,490.004608 1356.286987,489.764832 1351.656982,490.058441 
	C1343.882324,490.551514 1335.990845,490.705292 1328.402832,492.250397 
	C1319.473755,494.068573 1312.691772,499.348572 1309.978271,508.612640 
	C1305.587524,523.603333 1313.838013,536.620117 1331.277100,541.241394 
M934.146790,512.122314 
	C932.826172,506.721222 930.322266,501.300446 930.411682,495.922791 
	C930.658508,481.077881 941.650513,472.216095 956.354736,473.940063 
	C963.752502,474.807404 968.515686,479.505066 972.558411,485.497101 
	C979.155640,481.934753 985.521606,478.497314 991.856445,475.076630 
	C983.510803,457.229828 962.515747,449.000458 939.817322,454.283264 
	C917.887451,459.387207 904.071533,476.952667 904.694397,498.938477 
	C905.323059,521.129944 920.164856,537.511292 943.390625,541.648682 
	C964.732239,545.450500 984.990356,536.543823 991.691040,520.192444 
	C985.358154,516.735352 978.997925,513.263306 972.697021,509.823639 
	C961.010315,524.583923 945.646729,525.635437 934.146790,512.122314 
M1459.341919,456.068115 
	C1453.736938,456.068115 1448.131958,456.068115 1442.139404,456.068115 
	C1442.139404,448.705078 1442.139404,441.948486 1442.139404,435.260010 
	C1433.630371,435.260010 1425.531372,435.260010 1417.020264,435.260010 
	C1417.020264,442.249542 1417.020264,448.996674 1417.020264,456.024658 
	C1412.494629,456.024658 1408.373779,456.024658 1404.174561,456.024658 
	C1404.174561,462.702393 1404.174561,469.076599 1404.174561,475.824310 
	C1408.617676,475.824310 1412.707764,475.824310 1417.109497,475.824310 
	C1417.109497,488.341125 1416.921509,500.481689 1417.163696,512.613647 
	C1417.394409,524.169006 1421.254395,534.156067 1432.635620,538.938232 
	C1445.190308,544.213318 1457.776611,543.724670 1470.210327,537.028931 
	C1467.846436,530.851318 1465.673218,525.171692 1463.406372,519.247559 
	C1462.071411,519.897949 1461.075317,520.459534 1460.023804,520.883667 
	C1449.593262,525.091309 1442.529175,520.424683 1442.369751,509.174072 
	C1442.289429,503.510620 1442.355469,497.845062 1442.355347,492.180450 
	C1442.355347,486.772461 1442.355347,481.364471 1442.355347,475.457428 
	C1449.993286,475.457428 1456.900391,475.457428 1463.987793,475.457428 
	C1463.987793,469.784973 1463.805664,464.617889 1464.056519,459.471924 
	C1464.205200,456.421692 1462.930542,455.686615 1459.341919,456.068115 
M839.268982,473.500549 
	C839.268982,456.114532 839.268982,438.728485 839.268982,421.520020 
	C830.415710,421.520020 822.335693,421.520020 814.249695,421.520020 
	C814.249695,461.436646 814.249695,501.008057 814.249695,540.702271 
	C822.647217,540.702271 830.838623,540.702271 839.268982,540.702271 
	C839.268982,518.434814 839.268982,496.467712 839.268982,473.500549 
M863.961182,540.987488 
	C871.870667,540.987488 879.780212,540.987488 887.531738,540.987488 
	C887.531738,511.671204 887.531738,483.002747 887.531738,454.378967 
	C879.101868,454.378967 871.033569,454.378967 862.761536,454.378967 
	C862.689270,455.610870 862.582336,456.587250 862.581970,457.563690 
	C862.572815,484.171570 862.568481,510.779449 862.595215,537.387329 
	C862.596313,538.514648 862.902832,539.641785 863.961182,540.987488 
M882.013550,415.182556 
	C880.399292,414.823334 878.801697,414.289734 877.168091,414.134064 
	C868.555176,413.313293 861.405396,417.839874 859.899536,424.964264 
	C858.322083,432.428070 862.087219,438.835968 869.473206,441.257355 
	C877.834961,443.998627 886.785339,440.531525 889.782654,433.390076 
	C892.751648,426.315765 890.167358,419.802643 882.013550,415.182556 
z" data-index="0" style="opacity: 1; visibility: visible; fill: rgb(255, 255, 255);"></path>
<path fill="#FAFAFA" opacity="1.000000" stroke="none" d="
M1145.412354,470.878998 
	C1156.514282,473.956085 1167.349365,476.568451 1177.910645,480.019135 
	C1187.424316,483.127502 1195.131226,488.804047 1198.025269,499.099213 
	C1202.004272,513.254944 1196.232544,527.325134 1183.460938,535.229858 
	C1175.915161,539.900085 1167.569458,542.027405 1158.881348,542.704346 
	C1143.890869,543.872253 1129.329102,541.759521 1115.464355,535.785889 
	C1112.004272,534.295105 1108.801514,532.207397 1105.102905,530.187988 
	C1108.207397,523.295532 1111.102051,516.868958 1114.093872,510.226654 
	C1126.142334,518.182861 1138.984985,522.221741 1152.954834,521.824951 
	C1157.506714,521.695618 1162.149170,520.547302 1166.508911,519.125244 
	C1170.325317,517.880371 1172.748047,514.816162 1173.046265,510.512024 
	C1173.354980,506.054901 1170.930908,502.910370 1167.242310,501.469971 
	C1160.778931,498.946045 1154.040283,497.117035 1147.390137,495.084137 
	C1140.567261,492.998413 1133.514160,491.513428 1126.916870,488.876740 
	C1116.440308,484.689636 1108.978638,477.587189 1107.779541,465.525787 
	C1106.521973,452.875519 1110.636719,442.527222 1121.117676,435.178192 
	C1133.201538,426.705383 1147.074341,425.346283 1161.240356,426.332184 
	C1172.754150,427.133545 1183.888550,429.704346 1194.278687,436.206177 
	C1191.671387,442.681366 1189.094482,449.081360 1186.803955,454.769745 
	C1177.831665,452.296967 1169.259766,449.267303 1160.427979,447.748138 
	C1155.040894,446.821503 1149.137573,447.636475 1143.676636,448.725555 
	C1137.208496,450.015594 1133.828125,454.329559 1133.666382,459.537506 
	C1133.508911,464.608398 1135.825928,467.275909 1142.688965,469.916687 
	C1143.463989,470.214905 1144.247070,470.492249 1145.412354,470.878998 
z" data-index="1" style="opacity: 1;"></path>
<path fill="#FBFBFB" opacity="1.000000" stroke="none" d="
M1031.032959,526.152588 
	C1031.032959,531.261230 1031.032959,535.891235 1031.032959,540.759277 
	C1022.647339,540.759277 1014.566711,540.759277 1006.179810,540.759277 
	C1006.179810,501.088623 1006.179810,461.400879 1006.179810,421.443726 
	C1014.309509,421.443726 1022.380249,421.443726 1030.864258,421.443726 
	C1030.864258,443.557617 1030.864258,465.610565 1030.864258,488.584717 
	C1032.492188,487.312012 1033.495361,486.649750 1034.355713,485.836456 
	C1044.519775,476.227295 1054.578125,466.503510 1064.892700,457.059479 
	C1066.629150,455.469635 1069.418945,454.336975 1071.773071,454.240662 
	C1080.034180,453.902679 1088.317383,454.109528 1097.724121,454.109528 
	C1084.845947,466.230164 1072.701172,477.660553 1060.387817,489.249664 
	C1074.691772,507.444122 1087.582275,523.840698 1101.070435,540.997498 
	C1090.806152,540.997498 1081.406372,541.102356 1072.014771,540.874573 
	C1070.733398,540.843506 1069.230347,539.365906 1068.273804,538.195251 
	C1059.963745,528.025574 1051.755127,517.772949 1043.075684,506.997986 
	C1038.622925,513.237427 1029.356812,515.708618 1031.032959,526.152588 
z" data-index="2"></path>
<path fill="#9E1FEC" opacity="1.000000" stroke="none" d="
M718.110474,540.007385 
	C715.981323,540.007385 714.337158,540.007385 712.370544,540.007385 
	C712.370544,501.793427 712.370544,463.874237 712.370544,425.536316 
	C740.937439,425.536316 769.632324,425.536316 798.627319,425.536316 
	C798.627319,432.326477 798.627319,439.088837 798.627319,446.424011 
	C778.939697,446.424011 759.205505,446.424011 739.134949,446.424011 
	C739.134949,456.735565 739.134949,466.487518 739.134949,476.774780 
	C756.485596,476.774780 773.893005,476.774780 791.592957,476.774780 
	C791.592957,484.036316 791.592957,490.771240 791.592957,498.075134 
	C774.096680,498.075134 756.703369,498.075134 738.855469,498.075134 
	C738.855469,512.218323 738.855469,525.805176 738.855469,540.007385 
	C731.800049,540.007385 725.197815,540.007385 718.110474,540.007385 
z" data-index="3"></path>
<path fill="#C35231" opacity="1.000000" stroke="none" d="
M667.997803,519.559631 
	C657.452698,523.010986 646.936096,526.552612 636.354797,529.889221 
	C625.093079,533.440308 613.776794,536.819153 602.471619,540.230896 
	C595.504089,542.333618 591.766724,540.336182 589.498352,533.429993 
	C587.064636,526.020447 584.651306,518.603882 582.165405,511.211823 
	C579.144592,502.229126 580.205383,500.089111 589.236633,497.225433 
	C590.653992,496.776031 592.053711,496.271149 593.860718,495.656097 
	C589.237732,491.689514 587.445190,487.392578 589.335876,481.375732 
	C591.567505,474.274078 592.829102,466.862122 594.406860,459.562103 
	C595.995972,452.209595 599.216797,449.894318 606.560486,451.427734 
	C627.072937,455.710846 647.563660,460.097992 668.061157,464.452179 
	C669.847900,464.831726 671.621826,465.270996 673.667358,466.280609 
	C671.524719,477.216949 669.484070,487.659668 666.587036,497.859131 
	C664.431885,505.446411 664.568298,512.516113 667.997803,519.559631 
M643.820374,475.628082 
	C642.440918,473.669952 641.061462,471.711823 638.792053,468.490356 
	C637.936646,472.642578 637.341797,475.530212 636.746948,478.417877 
	C637.149719,478.523560 637.552551,478.629272 637.955383,478.734985 
	C638.532532,477.404053 639.109680,476.073120 639.794067,474.495056 
	C640.734375,476.269806 641.466370,477.651215 642.492065,479.587036 
	C643.673828,478.254517 644.502380,477.320282 645.923706,476.347229 
	C646.116272,477.843323 646.308899,479.339447 646.501465,480.835571 
	C646.902710,480.862915 647.303894,480.890289 647.705139,480.917633 
	C648.232483,478.024933 648.759766,475.132233 649.287109,472.239502 
	C648.798767,472.034607 648.310425,471.829712 647.822144,471.624817 
	C646.698425,472.880493 645.574707,474.136139 643.820374,475.628082 
M602.794128,516.584900 
	C602.285461,516.981934 601.776855,517.379028 601.865967,517.309448 
	C603.867676,520.361633 605.706238,523.165100 607.637085,526.109253 
	C607.637085,522.452637 607.637085,519.156128 607.637085,515.697876 
	C606.488770,515.774658 604.739014,515.891663 603.128418,515.324280 
	C603.421387,514.761780 603.714294,514.199219 603.582275,514.452759 
	C601.343445,513.362793 599.329346,512.382202 597.315247,511.401581 
	C598.618652,509.590454 599.922119,507.779327 601.381348,505.751709 
	C598.479553,504.500275 595.891174,506.080750 595.449829,508.904724 
	C595.131348,510.941437 596.792053,513.648865 598.294678,515.453796 
	C599.027161,516.333740 601.415894,515.834717 602.794128,516.584900 
M624.688660,519.072815 
	C625.797546,518.486816 626.906494,517.900757 628.711243,516.947021 
	C629.213806,517.153503 630.840881,517.821899 632.078979,518.330505 
	C630.889465,515.257874 629.775696,512.380981 628.670776,509.526978 
	C628.068604,510.421570 627.212219,511.693909 626.360046,512.959900 
	C625.232483,512.217834 624.382202,511.658203 623.227783,510.898499 
	C623.528809,513.935791 623.781128,516.481323 623.249573,519.101562 
	C620.995728,519.837219 618.079041,521.813171 617.002075,518.414368 
	C616.504944,516.845642 618.700562,514.423584 619.828674,512.068237 
	C617.539001,511.528625 614.776306,512.465332 614.506714,515.625854 
	C614.329346,517.706543 615.853516,520.839661 617.603882,521.966187 
	C620.271484,523.683105 623.001526,522.458191 624.688660,519.072815 
M639.786621,505.450226 
	C637.202698,506.246735 634.618774,507.043213 631.548889,507.989471 
	C632.776001,511.534271 633.825012,514.564636 635.028931,518.042358 
	C637.320068,517.141357 639.091797,516.444641 640.863525,515.747925 
	C640.759155,515.414856 640.654785,515.081726 640.550415,514.748657 
	C639.173096,514.748657 637.795776,514.748657 635.891357,514.748657 
	C636.648315,513.426880 637.165466,512.523743 637.676758,511.630890 
	C636.723572,511.047363 635.794434,510.478546 634.882690,509.920380 
	C641.791931,502.940674 642.787476,510.779144 646.085144,513.605835 
	C645.458801,510.540070 644.832458,507.474335 644.107544,503.925934 
	C642.930237,504.170654 641.552307,504.457062 639.786621,505.450226 
M616.793640,504.006134 
	C616.239868,503.075378 615.686096,502.144623 615.132324,501.213867 
	C614.828308,501.371552 614.524292,501.529266 614.220276,501.686981 
	C614.386353,503.047821 614.552490,504.408691 614.781982,506.289124 
	C612.236206,504.943878 610.192749,503.864105 608.149353,502.784363 
	C607.825317,503.085022 607.501343,503.385712 607.177307,503.686401 
	C608.239014,506.705688 609.300720,509.724976 610.362427,512.744263 
	C610.740845,512.637573 611.119202,512.530823 611.497620,512.424072 
	C611.497620,510.934845 611.497620,509.445618 611.497620,507.673615 
	C613.736023,508.675659 615.612854,509.515869 618.561523,510.835907 
	C617.874634,508.088867 617.455261,506.411682 616.793640,504.006134 
M628.112061,469.712097 
	C628.026978,469.002777 627.941833,468.293427 627.758301,466.763947 
	C626.512329,468.719299 625.733704,469.941101 624.863708,471.306396 
	C623.388245,469.242798 622.186462,467.561920 620.118896,464.670074 
	C619.194458,469.027985 618.555664,472.039490 617.916870,475.050995 
	C618.376343,475.150055 618.835876,475.249115 619.295410,475.348175 
	C619.920349,473.755707 620.545227,472.163239 621.354309,470.101532 
	C622.156128,471.586487 622.676147,472.609711 623.252136,473.600372 
	C623.891479,474.699890 624.581787,475.769684 625.812683,477.764374 
	C626.731445,474.719086 627.371460,472.597687 628.112061,469.712097 
M652.737244,475.106201 
	C651.403503,477.134827 650.069824,479.163483 649.097107,480.643097 
	C652.179443,481.281097 654.951660,481.854889 658.006042,482.487091 
	C657.688843,480.404175 657.359680,477.481689 656.653748,474.653229 
	C656.573120,474.330170 654.382141,474.533844 652.737244,475.106201 
M633.176758,490.169586 
	C633.725952,490.011688 634.275146,489.853821 634.824341,489.695892 
	C634.258240,488.203583 633.692200,486.711243 633.181946,485.366150 
	C634.482422,483.978882 635.547607,482.842529 636.612854,481.706177 
	C636.472046,481.494751 636.331238,481.283295 636.190369,481.071838 
	C634.643860,481.736847 633.097412,482.401855 631.584167,483.052582 
	C631.037598,481.915894 630.604004,481.014160 629.547668,478.817230 
	C628.523010,483.273102 627.821472,486.323822 627.119934,489.374542 
	C627.596741,489.497742 628.073547,489.620941 628.550293,489.744141 
	C629.228760,488.622772 629.907166,487.501404 630.770508,486.074402 
	C631.668518,487.620209 632.243042,488.609100 633.176758,490.169586 
M642.011719,482.088623 
	C635.524719,481.243134 637.431091,486.856262 637.117371,489.528229 
	C636.652405,493.487244 640.389221,491.803345 642.251831,492.722778 
	C642.431030,492.355377 642.610229,491.988007 642.789368,491.620636 
	C641.562134,490.835236 640.334839,490.049805 638.322876,488.762207 
	C640.442566,488.341614 641.645996,488.102814 643.457703,487.743317 
	C641.944885,486.531616 641.040100,485.806915 639.575745,484.634033 
	C641.715210,484.189117 643.094177,483.902344 645.282898,483.447144 
	C643.912659,482.772766 643.349304,482.495514 642.011719,482.088623 
M620.592773,478.995270 
	C617.912537,481.231384 616.985840,484.126251 619.311401,486.773499 
	C620.518799,488.147858 623.114563,488.302551 625.083130,489.008209 
	C625.050720,488.716034 625.018250,488.423859 624.985840,488.131653 
	C623.442383,486.608307 621.898926,485.084930 620.355469,483.561554 
	C622.310059,482.238129 624.264648,480.914673 626.993530,479.066925 
	C624.982117,478.904388 623.116089,478.753571 620.592773,478.995270 
M621.703979,502.815826 
	C620.859863,501.565979 620.015747,500.316132 619.171631,499.066254 
	C618.999878,500.663605 618.573547,502.286621 618.730957,503.850830 
	C618.876160,505.292633 619.309570,507.534821 620.217529,507.890900 
	C621.901184,508.551178 624.024597,508.126007 625.960754,508.048828 
	C626.147278,508.041382 626.304749,507.303528 626.652405,506.492615 
	C624.969849,506.571075 623.617859,506.634125 622.905823,506.667358 
	C622.703552,505.121216 622.558105,504.009064 621.703979,502.815826 
M613.698059,465.453217 
	C611.876770,462.549774 609.065247,462.230682 607.202637,464.544098 
	C605.847107,466.227661 605.161133,469.512024 605.841492,471.517975 
	C606.800598,474.345825 609.650574,474.535522 611.648560,473.484497 
	C610.043274,471.526398 607.403137,469.755920 607.462219,468.080719 
	C607.591187,464.428802 610.749023,465.422028 613.698059,465.453217 
M631.934509,476.681641 
	C632.505615,475.455566 633.076721,474.229492 633.688721,472.915588 
	C633.398193,472.554504 632.750427,471.749420 631.741943,470.496155 
	C633.740112,470.231171 635.104309,470.050262 636.468567,469.869354 
	C634.731628,468.623993 631.630371,467.776398 631.352661,468.334381 
	C629.971436,471.108887 629.333862,474.253571 628.320251,477.650543 
	C630.983704,478.188080 632.681396,478.530731 634.379089,478.873383 
	C634.478333,478.481354 634.577637,478.089355 634.676880,477.697327 
	C633.984924,477.430328 633.292908,477.163361 631.934509,476.681641 
M614.292542,477.392548 
	C612.135315,476.432892 609.978149,475.473236 607.943359,474.568024 
	C608.163391,478.700653 608.340088,482.019928 608.510559,485.221741 
	C610.356812,482.616180 612.053528,480.221741 614.292542,477.392548 
M647.441101,485.341461 
	C647.441101,488.038055 647.441101,490.734650 647.441101,494.627319 
	C649.389038,490.439087 650.774170,487.460968 652.233154,484.324036 
	C650.788086,484.006714 649.025146,483.605133 647.245178,483.303955 
	C647.195801,483.295624 646.964294,484.363983 647.441101,485.341461 
z" data-index="4"></path>
<path fill="#FAFAFA" opacity="1.000000" stroke="none" d="
M1299.039551,487.021790 
	C1299.501465,493.027130 1299.901123,498.607361 1300.338379,504.711975 
	C1277.866089,504.711975 1256.298462,504.711975 1234.693848,504.711975 
	C1236.220947,522.010864 1264.556396,528.703064 1280.640137,513.795593 
	C1285.006714,518.494080 1289.377319,523.197021 1293.963745,528.132141 
	C1289.151611,533.978882 1283.159668,537.716125 1276.255737,539.707458 
	C1262.599365,543.646301 1248.937866,543.515991 1235.630005,538.127441 
	C1216.596924,530.420715 1206.967163,513.445679 1208.995483,491.595306 
	C1210.684326,473.401123 1225.267334,457.714264 1243.925537,454.021301 
	C1267.290527,449.396759 1288.117798,459.098572 1296.388428,478.552917 
	C1297.485962,481.134430 1298.125610,483.910645 1299.039551,487.021790 
M1244.954468,474.155121 
	C1238.661865,477.455688 1234.888306,482.505737 1233.911499,489.831787 
	C1248.072388,489.831787 1261.972168,489.831787 1275.890137,489.831787 
	C1274.405884,475.792511 1260.663452,468.617371 1244.954468,474.155121 
z" data-index="5" style="opacity: 1;"></path>
<path fill="#FAFAFA" opacity="1.000000" stroke="none" d="
M1330.873047,541.151611 
	C1313.838013,536.620117 1305.587524,523.603333 1309.978271,508.612640 
	C1312.691772,499.348572 1319.473755,494.068573 1328.402832,492.250397 
	C1335.990845,490.705292 1343.882324,490.551514 1351.656982,490.058441 
	C1356.286987,489.764832 1360.950928,490.004608 1365.571289,490.004608 
	C1366.454834,481.856842 1362.178589,475.795044 1354.066895,473.948669 
	C1342.217407,471.251465 1331.447144,474.296722 1321.130981,480.865295 
	C1318.195190,475.181427 1315.310791,469.597260 1312.080811,463.344208 
	C1315.145264,461.695343 1318.006470,459.813293 1321.116821,458.540649 
	C1335.864746,452.506256 1351.071899,451.003662 1366.544434,455.100861 
	C1380.918701,458.907288 1390.282715,469.634460 1390.822266,484.462769 
	C1391.499268,503.065796 1390.985352,521.712158 1390.985352,540.673340 
	C1383.627197,540.673340 1376.074585,540.673340 1368.109375,540.673340 
	C1367.944214,538.016052 1367.767456,535.170654 1367.541016,531.525879 
	C1357.162231,543.147705 1344.507812,543.361328 1330.873047,541.151611 
M1335.363403,509.175568 
	C1332.659302,514.703735 1333.232910,519.115967 1337.060913,522.231934 
	C1342.038452,526.283691 1352.835815,526.236145 1359.301025,522.134033 
	C1365.456299,518.228577 1367.289062,513.117432 1365.422729,504.929749 
	C1358.958740,504.929749 1352.440063,504.525024 1346.007446,505.093170 
	C1342.569336,505.396851 1339.279541,507.378510 1335.363403,509.175568 
z" data-index="6" style="opacity: 1;"></path>
<path fill="#FAFAFA" opacity="1.000000" stroke="none" d="
M934.368835,512.422302 
	C945.646729,525.635437 961.010315,524.583923 972.697021,509.823639 
	C978.997925,513.263306 985.358154,516.735352 991.691040,520.192444 
	C984.990356,536.543823 964.732239,545.450500 943.390625,541.648682 
	C920.164856,537.511292 905.323059,521.129944 904.694397,498.938477 
	C904.071533,476.952667 917.887451,459.387207 939.817322,454.283264 
	C962.515747,449.000458 983.510803,457.229828 991.856445,475.076630 
	C985.521606,478.497314 979.155640,481.934753 972.558411,485.497101 
	C968.515686,479.505066 963.752502,474.807404 956.354736,473.940063 
	C941.650513,472.216095 930.658508,481.077881 930.411682,495.922791 
	C930.322266,501.300446 932.826172,506.721222 934.368835,512.422302 
z" data-index="7"></path>
<path fill="#FAFAFA" opacity="1.000000" stroke="none" d="
M1459.822998,456.068115 
	C1462.930542,455.686615 1464.205200,456.421692 1464.056519,459.471924 
	C1463.805664,464.617889 1463.987793,469.784973 1463.987793,475.457428 
	C1456.900391,475.457428 1449.993286,475.457428 1442.355347,475.457428 
	C1442.355347,481.364471 1442.355347,486.772461 1442.355347,492.180450 
	C1442.355469,497.845062 1442.289429,503.510620 1442.369751,509.174072 
	C1442.529175,520.424683 1449.593262,525.091309 1460.023804,520.883667 
	C1461.075317,520.459534 1462.071411,519.897949 1463.406372,519.247559 
	C1465.673218,525.171692 1467.846436,530.851318 1470.210327,537.028931 
	C1457.776611,543.724670 1445.190308,544.213318 1432.635620,538.938232 
	C1421.254395,534.156067 1417.394409,524.169006 1417.163696,512.613647 
	C1416.921509,500.481689 1417.109497,488.341125 1417.109497,475.824310 
	C1412.707764,475.824310 1408.617676,475.824310 1404.174561,475.824310 
	C1404.174561,469.076599 1404.174561,462.702393 1404.174561,456.024658 
	C1408.373779,456.024658 1412.494629,456.024658 1417.020264,456.024658 
	C1417.020264,448.996674 1417.020264,442.249542 1417.020264,435.260010 
	C1425.531372,435.260010 1433.630371,435.260010 1442.139404,435.260010 
	C1442.139404,441.948486 1442.139404,448.705078 1442.139404,456.068115 
	C1448.131958,456.068115 1453.736938,456.068115 1459.822998,456.068115 
z" data-index="8"></path>
<path fill="#FBFBFB" opacity="1.000000" stroke="none" d="
M839.268982,474.000580 
	C839.268982,496.467712 839.268982,518.434814 839.268982,540.702271 
	C830.838623,540.702271 822.647217,540.702271 814.249695,540.702271 
	C814.249695,501.008057 814.249695,461.436646 814.249695,421.520020 
	C822.335693,421.520020 830.415710,421.520020 839.268982,421.520020 
	C839.268982,438.728485 839.268982,456.114532 839.268982,474.000580 
z" data-index="9"></path>
<path fill="#FBFBFB" opacity="1.000000" stroke="none" d="
M863.514160,540.878235 
	C862.902832,539.641785 862.596313,538.514648 862.595215,537.387329 
	C862.568481,510.779449 862.572815,484.171570 862.581970,457.563690 
	C862.582336,456.587250 862.689270,455.610870 862.761536,454.378967 
	C871.033569,454.378967 879.101868,454.378967 887.531738,454.378967 
	C887.531738,483.002747 887.531738,511.671204 887.531738,540.987488 
	C879.780212,540.987488 871.870667,540.987488 863.514160,540.878235 
z" data-index="10"></path>
<path fill="#FAFAFA" opacity="1.000000" stroke="none" d="
M668.380859,519.438171 
	C664.568298,512.516113 664.431885,505.446411 666.587036,497.859131 
	C669.484070,487.659668 671.524719,477.216949 673.970459,466.501953 
	C679.867065,467.218628 685.749390,468.202972 691.576355,469.446838 
	C694.989624,470.175476 697.805542,474.919525 697.067810,478.502350 
	C695.038940,488.355591 692.982422,498.204498 690.783875,508.020844 
	C689.580444,513.393860 684.985596,514.601562 679.875732,515.808350 
	C678.841919,516.079041 678.426575,516.333801 678.011169,516.588623 
	C677.521729,516.719910 677.032227,516.851257 676.018433,516.970398 
	C675.125305,516.946594 674.949524,517.125305 674.966919,517.494385 
	C674.196289,517.706421 673.425659,517.918457 672.119080,518.128296 
	C671.202209,518.125061 671.037903,518.313354 671.090149,518.690979 
	C670.314758,518.899597 669.539307,519.108154 668.380859,519.438171 
M687.717590,473.368530 
	C684.951904,472.885529 682.192566,472.116791 679.417603,472.056000 
	C678.260010,472.030609 676.295166,473.304688 676.018494,474.340668 
	C674.101196,481.520599 672.411621,488.768158 670.881104,496.042877 
	C668.916626,505.380493 669.033264,505.295593 678.423218,507.347656 
	C681.195312,507.953461 682.628540,507.883270 683.278503,504.595337 
	C685.166687,495.043121 687.429871,485.565430 689.431580,476.034485 
	C689.574097,475.355713 688.788757,474.482086 687.717590,473.368530 
M688.765381,487.313324 
	C688.197205,489.701691 687.563416,492.076843 687.080139,494.482300 
	C686.640808,496.669617 686.365173,498.889862 686.017334,501.095581 
	C686.481506,501.174438 686.945618,501.253326 687.409790,501.332184 
	C688.999573,494.862976 690.589355,488.393738 692.179138,481.924530 
	C691.629761,481.757904 691.080444,481.591248 690.531067,481.424622 
	C690.001648,483.124512 689.472229,484.824432 688.765381,487.313324 
M674.433594,510.510010 
	C672.742188,510.301910 671.050781,510.093842 668.790649,509.815796 
	C669.242859,511.448730 669.473572,513.077820 669.730103,513.081909 
	C671.714294,513.113464 673.703430,512.830811 675.691040,512.645508 
	C675.508850,512.012878 675.326721,511.380219 674.433594,510.510010 
z" data-index="11"></path>
<path fill="#FAFAFA" opacity="1.000000" stroke="none" d="
M882.358215,415.364929 
	C890.167358,419.802643 892.751648,426.315765 889.782654,433.390076 
	C886.785339,440.531525 877.834961,443.998627 869.473206,441.257355 
	C862.087219,438.835968 858.322083,432.428070 859.899536,424.964264 
	C861.405396,417.839874 868.555176,413.313293 877.168091,414.134064 
	C878.801697,414.289734 880.399292,414.823334 882.358215,415.364929 
z" data-index="12"></path>
<path fill="#C35231" opacity="1.000000" stroke="none" d="
M678.248474,516.718750 
	C678.426575,516.333801 678.841919,516.079041 679.491089,515.941528 
	C679.311768,516.322205 678.898804,516.585571 678.248474,516.718750 
z" data-index="13"></path>
<path fill="#C35231" opacity="1.000000" stroke="none" d="
M675.133606,517.633057 
	C674.949524,517.125305 675.125305,516.946594 675.658325,517.092102 
	C675.850281,517.601257 675.676208,517.783142 675.133606,517.633057 
z" data-index="14"></path>
<path fill="#C35231" opacity="1.000000" stroke="none" d="
M671.254517,518.814026 
	C671.037903,518.313354 671.202209,518.125061 671.744812,518.268372 
	C671.938354,518.766602 671.775818,518.942078 671.254517,518.814026 
z" data-index="15"></path>
<path fill="#E8BEA9" opacity="1.000000" stroke="none" d="
M639.980469,505.096863 
	C641.552307,504.457062 642.930237,504.170654 644.107544,503.925934 
	C644.832458,507.474335 645.458801,510.540070 646.085144,513.605835 
	C642.787476,510.779144 641.791931,502.940674 634.882690,509.920380 
	C635.794434,510.478546 636.723572,511.047363 637.676758,511.630890 
	C637.165466,512.523743 636.648315,513.426880 635.891357,514.748657 
	C637.795776,514.748657 639.173096,514.748657 640.550415,514.748657 
	C640.654785,515.081726 640.759155,515.414856 640.863525,515.747925 
	C639.091797,516.444641 637.320068,517.141357 635.028931,518.042358 
	C633.825012,514.564636 632.776001,511.534271 631.548889,507.989471 
	C634.618774,507.043213 637.202698,506.246735 639.980469,505.096863 
z" data-index="16"></path>
<path fill="#E8BEA9" opacity="1.000000" stroke="none" d="
M616.914795,504.370300 
	C617.455261,506.411682 617.874634,508.088867 618.561523,510.835907 
	C615.612854,509.515869 613.736023,508.675659 611.497620,507.673615 
	C611.497620,509.445618 611.497620,510.934845 611.497620,512.424072 
	C611.119202,512.530823 610.740845,512.637573 610.362427,512.744263 
	C609.300720,509.724976 608.239014,506.705688 607.177307,503.686401 
	C607.501343,503.385712 607.825317,503.085022 608.149353,502.784363 
	C610.192749,503.864105 612.236206,504.943878 614.781982,506.289124 
	C614.552490,504.408691 614.386353,503.047821 614.220276,501.686981 
	C614.524292,501.529266 614.828308,501.371552 615.132324,501.213867 
	C615.686096,502.144623 616.239868,503.075378 616.914795,504.370300 
z" data-index="17"></path>
<path fill="#E8BEA9" opacity="1.000000" stroke="none" d="
M628.061768,470.094208 
	C627.371460,472.597687 626.731445,474.719086 625.812683,477.764374 
	C624.581787,475.769684 623.891479,474.699890 623.252136,473.600372 
	C622.676147,472.609711 622.156128,471.586487 621.354309,470.101532 
	C620.545227,472.163239 619.920349,473.755707 619.295410,475.348175 
	C618.835876,475.249115 618.376343,475.150055 617.916870,475.050995 
	C618.555664,472.039490 619.194458,469.027985 620.118896,464.670074 
	C622.186462,467.561920 623.388245,469.242798 624.863708,471.306396 
	C625.733704,469.941101 626.512329,468.719299 627.758301,466.763947 
	C627.941833,468.293427 628.026978,469.002777 628.061768,470.094208 
z" data-index="18"></path>
<path fill="#E8BEA9" opacity="1.000000" stroke="none" d="
M652.953491,474.799744 
	C654.382141,474.533844 656.573120,474.330170 656.653748,474.653229 
	C657.359680,477.481689 657.688843,480.404175 658.006042,482.487091 
	C654.951660,481.854889 652.179443,481.281097 649.097107,480.643097 
	C650.069824,479.163483 651.403503,477.134827 652.953491,474.799744 
z" data-index="19"></path>
<path fill="#E8BEA9" opacity="1.000000" stroke="none" d="
M624.033447,519.026855 
	C623.781128,516.481323 623.528809,513.935791 623.227783,510.898499 
	C624.382202,511.658203 625.232483,512.217834 626.360046,512.959900 
	C627.212219,511.693909 628.068604,510.421570 628.670776,509.526978 
	C629.775696,512.380981 630.889465,515.257874 632.078979,518.330505 
	C630.840881,517.821899 629.213806,517.153503 628.711243,516.947021 
	C626.906494,517.900757 625.797546,518.486816 624.346069,519.036621 
	C624.003418,519.000488 624.033447,519.026855 624.033447,519.026855 
z" data-index="20"></path>
<path fill="#E8BEA9" opacity="1.000000" stroke="none" d="
M632.997131,489.883789 
	C632.243042,488.609100 631.668518,487.620209 630.770508,486.074402 
	C629.907166,487.501404 629.228760,488.622772 628.550293,489.744141 
	C628.073547,489.620941 627.596741,489.497742 627.119934,489.374542 
	C627.821472,486.323822 628.523010,483.273102 629.547668,478.817230 
	C630.604004,481.014160 631.037598,481.915894 631.584167,483.052582 
	C633.097412,482.401855 634.643860,481.736847 636.190369,481.071838 
	C636.331238,481.283295 636.472046,481.494751 636.612854,481.706177 
	C635.547607,482.842529 634.482422,483.978882 633.181946,485.366150 
	C633.692200,486.711243 634.258240,488.203583 634.824341,489.695923 
	C634.275146,489.853821 633.725952,490.011688 632.997131,489.883789 
z" data-index="21"></path>
<path fill="#E8BEA9" opacity="1.000000" stroke="none" d="
M642.398865,482.153442 
	C643.349304,482.495514 643.912659,482.772766 645.282898,483.447144 
	C643.094177,483.902344 641.715210,484.189117 639.575745,484.634033 
	C641.040100,485.806915 641.944885,486.531616 643.457703,487.743317 
	C641.645996,488.102814 640.442566,488.341614 638.322876,488.762207 
	C640.334839,490.049805 641.562134,490.835236 642.789368,491.620636 
	C642.610229,491.988007 642.431030,492.355377 642.251831,492.722778 
	C640.389221,491.803345 636.652405,493.487244 637.117371,489.528229 
	C637.431091,486.856262 635.524719,481.243134 642.398865,482.153442 
z" data-index="22"></path>
<path fill="#E8BEA9" opacity="1.000000" stroke="none" d="
M620.921387,478.799011 
	C623.116089,478.753571 624.982117,478.904388 626.993530,479.066925 
	C624.264648,480.914673 622.310059,482.238129 620.355469,483.561554 
	C621.898926,485.084930 623.442383,486.608307 624.985840,488.131653 
	C625.018250,488.423859 625.050720,488.716034 625.083130,489.008209 
	C623.114563,488.302551 620.518799,488.147858 619.311401,486.773499 
	C616.985840,484.126251 617.912537,481.231384 620.921387,478.799011 
z" data-index="23"></path>
<path fill="#E8BEA9" opacity="1.000000" stroke="none" d="
M623.990845,518.985107 
	C623.001526,522.458191 620.271484,523.683105 617.603882,521.966187 
	C615.853516,520.839661 614.329346,517.706543 614.506714,515.625854 
	C614.776306,512.465332 617.539001,511.528625 619.828674,512.068237 
	C618.700562,514.423584 616.504944,516.845642 617.002075,518.414368 
	C618.079041,521.813171 620.995728,519.837219 623.641479,519.064209 
	C624.033447,519.026855 624.003418,519.000488 623.990845,518.985107 
z" data-index="24"></path>
<path fill="#E8BEA9" opacity="1.000000" stroke="none" d="
M622.058289,502.856354 
	C622.558105,504.009064 622.703552,505.121216 622.905823,506.667358 
	C623.617859,506.634125 624.969849,506.571075 626.652405,506.492615 
	C626.304749,507.303528 626.147278,508.041382 625.960754,508.048828 
	C624.024597,508.126007 621.901184,508.551178 620.217529,507.890900 
	C619.309570,507.534821 618.876160,505.292633 618.730957,503.850830 
	C618.573547,502.286621 618.999878,500.663605 619.171631,499.066254 
	C620.015747,500.316132 620.859863,501.565979 622.058289,502.856354 
z" data-index="25"></path>
<path fill="#E8BEA9" opacity="1.000000" stroke="none" d="
M613.436951,465.688904 
	C610.749023,465.422028 607.591187,464.428802 607.462219,468.080719 
	C607.403137,469.755920 610.043274,471.526398 611.648560,473.484497 
	C609.650574,474.535522 606.800598,474.345825 605.841492,471.517975 
	C605.161133,469.512024 605.847107,466.227661 607.202637,464.544098 
	C609.065247,462.230682 611.876770,462.549774 613.436951,465.688904 
z" data-index="26"></path>
<path fill="#E8BEA9" opacity="1.000000" stroke="none" d="
M603.054932,515.959900 
	C601.415894,515.834717 599.027161,516.333740 598.294678,515.453796 
	C596.792053,513.648865 595.131348,510.941437 595.449829,508.904724 
	C595.891174,506.080750 598.479553,504.500275 601.381348,505.751709 
	C599.922119,507.779327 598.618652,509.590454 597.315247,511.401581 
	C599.329346,512.382202 601.343445,513.362793 603.582275,514.452759 
	C603.714294,514.199219 603.421387,514.761780 603.074890,515.654175 
	C603.021362,515.984131 603.054932,515.959900 603.054932,515.959900 
z" data-index="27"></path>
<path fill="#E8BEA9" opacity="1.000000" stroke="none" d="
M632.267700,476.789001 
	C633.292908,477.163361 633.984924,477.430328 634.676880,477.697327 
	C634.577637,478.089355 634.478333,478.481354 634.379089,478.873383 
	C632.681396,478.530731 630.983704,478.188080 628.320251,477.650543 
	C629.333862,474.253571 629.971436,471.108887 631.352661,468.334381 
	C631.630371,467.776398 634.731628,468.623993 636.468567,469.869354 
	C635.104309,470.050262 633.740112,470.231171 631.741943,470.496155 
	C632.750427,471.749420 633.398193,472.554504 633.688721,472.915588 
	C633.076721,474.229492 632.505615,475.455566 632.267700,476.789001 
z" data-index="28"></path>
<path fill="#E8BEA9" opacity="1.000000" stroke="none" d="
M603.005310,515.996399 
	C604.739014,515.891663 606.488770,515.774658 607.637085,515.697876 
	C607.637085,519.156128 607.637085,522.452637 607.637085,526.109253 
	C605.706238,523.165100 603.867676,520.361633 601.865967,517.309448 
	C601.776855,517.379028 602.285461,516.981934 602.924561,516.272400 
	C603.054932,515.959900 603.021362,515.984131 603.005310,515.996399 
z" data-index="29"></path>
<path fill="#E8BEA9" opacity="1.000000" stroke="none" d="
M645.330933,476.386047 
	C644.502380,477.320282 643.673828,478.254517 642.492065,479.587036 
	C641.466370,477.651215 640.734375,476.269806 639.794067,474.495056 
	C639.109680,476.073120 638.532532,477.404053 637.955383,478.734985 
	C637.552551,478.629272 637.149719,478.523560 636.746948,478.417877 
	C637.341797,475.530212 637.936646,472.642578 638.792053,468.490356 
	C641.061462,471.711823 642.440918,473.669952 644.349243,475.764191 
	C645.028992,476.062195 645.179932,476.224121 645.330933,476.386047 
z" data-index="30"></path>
<path fill="#E8BEA9" opacity="1.000000" stroke="none" d="
M614.021362,477.609924 
	C612.053528,480.221741 610.356812,482.616180 608.510559,485.221741 
	C608.340088,482.019928 608.163391,478.700653 607.943359,474.568024 
	C609.978149,475.473236 612.135315,476.432892 614.021362,477.609924 
z" data-index="31"></path>
<path fill="#E8BEA9" opacity="1.000000" stroke="none" d="
M647.129395,485.135864 
	C646.964294,484.363983 647.195801,483.295624 647.245178,483.303955 
	C649.025146,483.605133 650.788086,484.006714 652.233154,484.324036 
	C650.774170,487.460968 649.389038,490.439087 647.441101,494.627319 
	C647.441101,490.734650 647.441101,488.038055 647.129395,485.135864 
z" data-index="32"></path>
<path fill="#E8BEA9" opacity="1.000000" stroke="none" d="
M644.664551,475.646057 
	C645.574707,474.136139 646.698425,472.880493 647.822144,471.624817 
	C648.310425,471.829712 648.798767,472.034607 649.287109,472.239502 
	C648.759766,475.132233 648.232483,478.024933 647.705139,480.917633 
	C647.303894,480.890289 646.902710,480.862915 646.501465,480.835571 
	C646.308899,479.339447 646.116272,477.843323 645.627319,476.366638 
	C645.179932,476.224121 645.028992,476.062195 644.664551,475.646057 
z" data-index="33"></path>
<path fill="#000000" opacity="1.000000" stroke="none" d="
M1245.318848,474.026123 
	C1260.663452,468.617371 1274.405884,475.792511 1275.890137,489.831787 
	C1261.972168,489.831787 1248.072388,489.831787 1233.911499,489.831787 
	C1234.888306,482.505737 1238.661865,477.455688 1245.318848,474.026123 
z" data-index="34"></path>
<path fill="#000000" opacity="1.000000" stroke="none" d="
M1335.643066,508.889221 
	C1339.279541,507.378510 1342.569336,505.396851 1346.007446,505.093170 
	C1352.440063,504.525024 1358.958740,504.929749 1365.422729,504.929749 
	C1367.289062,513.117432 1365.456299,518.228577 1359.301025,522.134033 
	C1352.835815,526.236145 1342.038452,526.283691 1337.060913,522.231934 
	C1333.232910,519.115967 1332.659302,514.703735 1335.643066,508.889221 
z" data-index="35"></path>
<path fill="#E8BEA9" opacity="1.000000" stroke="none" d="
M688.076233,473.533813 
	C688.788757,474.482086 689.574097,475.355713 689.431580,476.034485 
	C687.429871,485.565430 685.166687,495.043121 683.278503,504.595337 
	C682.628540,507.883270 681.195312,507.953461 678.423218,507.347656 
	C669.033264,505.295593 668.916626,505.380493 670.881104,496.042877 
	C672.411621,488.768158 674.101196,481.520599 676.018494,474.340668 
	C676.295166,473.304688 678.260010,472.030609 679.417603,472.056000 
	C682.192566,472.116791 684.951904,472.885529 688.076233,473.533813 
z" data-index="36"></path>
<path fill="#E8BEA9" opacity="1.000000" stroke="none" d="
M688.854126,486.918823 
	C689.472229,484.824432 690.001648,483.124512 690.531067,481.424622 
	C691.080444,481.591248 691.629761,481.757904 692.179138,481.924530 
	C690.589355,488.393738 688.999573,494.862976 687.409790,501.332184 
	C686.945618,501.253326 686.481506,501.174438 686.017334,501.095581 
	C686.365173,498.889862 686.640808,496.669617 687.080139,494.482300 
	C687.563416,492.076843 688.197205,489.701691 688.854126,486.918823 
z" data-index="37"></path>
<path fill="#E8BEA9" opacity="1.000000" stroke="none" d="
M674.789062,510.628784 
	C675.326721,511.380219 675.508850,512.012878 675.691040,512.645508 
	C673.703430,512.830811 671.714294,513.113464 669.730103,513.081909 
	C669.473572,513.077820 669.242859,511.448730 668.790649,509.815796 
	C671.050781,510.093842 672.742188,510.301910 674.789062,510.628784 
z" data-index="38"></path>
</svg>
